<svg
   viewBox="0 0 265 265"
   version="1.1"
   fill="none"
   xmlns="http://www.w3.org/2000/svg">
  <rect
     style="fill:#9a4dff;"
     width="265"
     height="265"
     rx="12"
     x="0"
     y="0"/>
  <path
     d="m 107.73875,185.9526 c -7.40289,-6.06091 -11.313144,-14.78548 -11.313144,-25.20554 v -49.53205 c 11.690104,-6.19698 25.845244,-9.3377 42.074394,-9.3377 16.22914,0 30.38585,3.14072 42.07439,9.3377 v 49.53205 c 0,10.42006 -3.91026,19.13837 -11.31316,25.20554 -6.77255,5.55101 -28.2915,14.9935 -30.7628,16.06803 -2.46815,-1.07453 -23.98708,-10.51546 -30.75968,-16.06803 z"
     fill="#330000"
     style="stroke-width:1.56411" />
  <path
     d="m 178.27047,110.63395 c -5.40868,-0.50208 -11.02692,-0.83367 -16.74999,-0.83367 -21.22489,0 -43.97948,4.56249 -62.79095,21.81613 v 29.49118 c 0,9.60516 3.55208,17.62589 10.30119,23.12684 5.95922,4.84872 24.29835,13.15412 29.46928,15.43615 5.10525,-2.24763 23.39743,-10.44353 29.46148,-15.43615 6.79132,-5.59636 10.30899,-13.43097 10.30899,-23.12684 v -50.47364 m -75.65258,47.40486 v -23.95112 h 7.6156 v 24.28896 c 0,2.1616 0.52242,5.36176 4.01507,5.36176 a 6.3815445,6.3815445 0 0 0 3.59745,-0.93847 v -28.71225 h 7.60625 v 33.05578 a 20.262967,20.262967 0 0 1 -11.48053,3.05938 c -7.53899,0 -11.36166,-4.09169 -11.36166,-12.16404 m 34.38213,27.64555 h -7.62029 v -49.65718 a 18.403248,18.403248 0 0 1 10.26988,-2.71059 c 9.09526,0 14.09259,6.90082 14.09259,18.00752 0,11.10671 -4.84872,18.74736 -13.31054,18.74736 a 12.076448,12.076448 0 0 1 -3.43008,-0.43326 z m 0,-22.27285 a 7.2418017,7.2418017 0 0 0 2.47285,0.45985 c 4.37949,0 6.47853,-4.02444 6.47853,-12.35642 0,-8.53531 -1.83158,-12.0655 -6.25641,-12.0655 a 6.6427499,6.6427499 0 0 0 -2.69965,0.549 z m 18.46894,-20.16442 a 10.111933,10.111933 0 0 1 10.22299,-9.9305 13.04932,13.04932 0 0 1 8.36169,2.47441 v 6.62711 a 10.201086,10.201086 0 0 0 -6.82418,-3.12821 c -2.16003,-0.0188 -4.40764,0.93064 -4.48116,3.63967 -0.0736,2.77315 2.16941,3.86803 5.00515,5.53536 6.36432,3.74135 7.59527,7.10416 7.44827,11.54778 -0.14547,4.87218 -3.50362,10.19327 -11.03163,10.19327 a 16.678042,16.678042 0 0 1 -8.37579,-2.36493 v -7.01813 a 12.129627,12.129627 0 0 0 7.28246,3.10005 c 2.79505,0.0141 4.63446,-1.58756 4.56875,-4.24497 -0.0579,-2.39152 -1.40768,-3.69129 -4.75955,-5.6605 -6.28303,-3.68503 -7.41229,-6.71782 -7.42326,-10.77041 m -48.97366,44.09365 C 98.77176,181.02645 94.705089,171.95309 94.705089,161.10759 V 109.55002 C 106.87226,103.09966 121.60768,99.830678 138.5,99.830678 c 16.89232,0 31.62774,3.268982 43.79491,9.719342 v 51.55757 c 0,10.8455 -4.06667,19.91886 -11.77614,26.23471 -7.04786,5.7778 -29.44739,15.60507 -32.01877,16.72341 -2.57139,-1.11834 -24.97093,-10.94561 -32.01878,-16.72497 z m 59.97403,10.8064 v 4.4749 h 0.80706 v -1.86754 h 0.11418 c 0.061,0.0907 1.2153,1.86754 1.2153,1.86754 h 0.97757 c 0,0 -1.22624,-1.79403 -1.3514,-1.96295 a 1.1902831,1.1902831 0 0 0 0.9901,-1.18873 1.3028986,1.3028986 0 0 0 -1.48903,-1.3154 z m 1.17619,0.65379 c 0.68664,0 0.78204,0.33629 0.78204,0.62564 0,0.41919 -0.17985,0.70229 -1.0448,0.70229 h -0.1048 v -1.33106 z m 3.1595,1.59539 a 3.0296696,3.0296696 0 1 1 -3.0328,-3.03594 3.0296696,3.0296696 0 0 1 3.0328,3.03594 m -3.04218,-3.68347 a 3.6772086,3.6772086 0 1 0 3.68188,3.68347 3.6881574,3.6881574 0 0 0 -3.68188,-3.68347"
     fill="#ffbe00"
     style="stroke-width:1.56411" />
  <path
     style="fill:#533582"
     d="m 220.76594,195.31765 -4.10519,21.35488 -183.249804,-0.19385 20.312458,-154.494065 60.998726,-1.51e-4 24.87309,22.501357 24.39457,-22.501357 72.40254,0.781245 2.45812,-11.999168 -208.176331,-13.005533 -8.59373,189.477982 216.493741,-0.19578 4.34548,-31.97949"
     id="rect11"
     />
</svg>
