<?xml version="1.0" encoding="UTF-8" standalone="no"?>
<svg
   viewBox="0 0 265 265"
   version="1.1"
   fill="none"
   id="svg24"
   sodipodi:docname="icon-ups-full.svg"
   inkscape:version="1.2 (dc2aeda, 2022-05-15)"
   xmlns:inkscape="http://www.inkscape.org/namespaces/inkscape"
   xmlns:sodipodi="http://sodipodi.sourceforge.net/DTD/sodipodi-0.dtd"
   xmlns="http://www.w3.org/2000/svg"
   xmlns:svg="http://www.w3.org/2000/svg">
  <defs
     id="defs28" />
  <sodipodi:namedview
     id="namedview26"
     pagecolor="#ffffff"
     bordercolor="#000000"
     borderopacity="0.25"
     inkscape:showpageshadow="2"
     inkscape:pageopacity="0.0"
     inkscape:pagecheckerboard="0"
     inkscape:deskcolor="#d1d1d1"
     showgrid="false"
     inkscape:zoom="0.89056604"
     inkscape:cx="268.36864"
     inkscape:cy="35.932203"
     inkscape:window-width="1512"
     inkscape:window-height="860"
     inkscape:window-x="0"
     inkscape:window-y="38"
     inkscape:window-maximized="0"
     inkscape:current-layer="g22" />
  <g
     id="g22">
    <rect
       style="fill:#9a4dff;"
       width="265"
       height="265"
       rx="12"
       x="0"
       y="0"
       id="rect2" />
    <rect
       style="fill:#533582;fill-opacity:1;stroke:none;stroke-width:0.96923;stroke-linejoin:round;stroke-dasharray:none;stroke-opacity:1;paint-order:normal"
       width="69.216103"
       height="61.350636"
       x="97.683617"
       y="0"
       id="rect16" />
    <g
       aria-label="S"
       transform="matrix(0.26458333,0,0,0.31909936,-8.4053331,-16.453577)"
       style="fill:#9a4dff;stroke-width:3.78709;stroke-linejoin:round"
       id="g20">
      <path
         d="m 532.70153,216.55199 q -10.45335,0 -20.72004,-2.61333 -10.17335,-2.61334 -18.76003,-7.93335 -8.49335,-5.32001 -14.00003,-13.34669 -5.50667,-8.12002 -6.34668,-19.04004 h 36.96007 q 1.02667,4.76001 4.01334,8.12002 2.98667,3.36 7.74668,5.22667 4.76001,1.77334 10.92002,1.77334 5.60001,0 10.54669,-1.12 5.04001,-1.12 8.12001,-3.73334 3.17334,-2.70667 3.17334,-7.46668 0,-4.10668 -3.26667,-6.34668 -3.17334,-2.24 -8.30668,-3.45334 -5.04001,-1.21334 -10.64002,-2.14667 l -20.62671,-3.54667 q -15.49336,-2.52001 -25.01337,-12.50669 -9.42669,-10.08002 -9.80002,-27.25339 -0.18667,-13.62669 7.28001,-23.240038 7.56001,-9.706685 20.16004,-14.746694 12.69335,-5.133343 28.00005,-5.133343 18.48003,0 31.26672,5.413344 12.78669,5.413343 19.41337,15.026694 6.72001,9.613347 7.00001,22.120037 H 553.7949 q -0.56,-5.22667 -3.17334,-8.40001 -2.61334,-3.26667 -7.09334,-4.66668 -4.38668,-1.49333 -10.64002,-1.49333 -5.22668,0 -8.77335,1.02666 -3.45334,0.93334 -5.50668,2.52001 -2.05334,1.49334 -2.98667,3.36001 -0.84,1.86667 -0.84,3.73334 0,4.57334 2.89334,7.37334 2.89333,2.80001 11.57335,4.38668 l 20.72004,3.54667 q 14.46669,2.52001 22.68004,7.84001 8.21335,5.22668 12.04002,11.85336 3.92001,6.62668 4.94668,13.16002 1.02667,6.53335 1.02667,11.57336 0,11.48002 -7.65335,20.6267 -7.56002,9.05335 -20.62671,14.28003 -13.06669,5.22667 -29.68005,5.22667 z"
         id="path18" />
    </g>
    <path
       d="m 90.962353,212.41591 c -9.9963,-8.18418 -15.27642,-19.96518 -15.27642,-34.03564 v -66.88432 c 15.78544,-8.36793 34.899457,-12.60892 56.814057,-12.60892 21.91461,0 41.03075,4.24099 56.81408,12.60892 v 66.88432 c 0,14.07046 -5.28012,25.84301 -15.27644,34.03564 -9.14514,7.49566 -38.20269,20.24609 -41.53975,21.69706 -3.33281,-1.45097 -32.39033,-14.19929 -41.535527,-21.69706 z"
       fill="#330000"
       id="path313"
       style="stroke-width:2.11205" />
    <path
       d="m 186.20302,110.71133 c -7.30346,-0.67797 -14.88991,-1.12572 -22.61791,-1.12572 -28.66048,0 -59.38655,6.16084 -84.788128,29.45884 v 39.82265 c 0,12.97008 4.79646,23.80066 13.90994,31.22873 8.046888,6.54735 32.810648,17.76232 39.793068,20.8438 6.89375,-3.03502 31.59412,-14.10214 39.78255,-20.8438 9.17049,-7.5569 13.92048,-18.13615 13.92048,-31.22873 V 110.71133 M 84.047532,174.72326 v -32.34178 h 10.28353 v 32.79798 c 0,2.91885 0.70543,7.2401 5.421635,7.2401 a 8.6171532,8.6171532 0 0 0 4.857733,-1.26723 v -38.77085 h 10.27089 v 44.63601 a 27.361573,27.361573 0 0 1 -15.502433,4.13116 c -10.180075,0 -15.341915,-5.52511 -15.341915,-16.42539 m 46.427008,37.33044 h -10.28987 v -67.05328 a 24.850349,24.850349 0 0 1 13.86768,-3.66018 c 12.28155,0 19.02957,9.31835 19.02957,24.316 0,14.99765 -6.54735,25.315 -17.97355,25.315 a 16.307118,16.307118 0 0 1 -4.63172,-0.58503 z m 0,-30.07556 a 9.7787792,9.7787792 0 0 0 3.33915,0.62095 c 5.91373,0 8.74812,-5.4343 8.74812,-16.68518 0,-11.52544 -2.47323,-16.29233 -8.44819,-16.29233 a 8.9698651,8.9698651 0 0 0 -3.64539,0.74133 z m 24.93906,-27.22851 a 13.654386,13.654386 0 0 1 13.80434,-13.40939 17.620811,17.620811 0 0 1 11.291,3.34126 v 8.94875 a 13.774773,13.774773 0 0 0 -9.21486,-4.2241 c -2.91674,-0.0253 -5.95175,1.25667 -6.05102,4.91473 -0.0993,3.74466 2.92941,5.2231 6.75858,7.47454 8.5939,5.05202 10.25608,9.59292 10.05757,15.59325 -0.19642,6.57902 -4.73101,13.76421 -14.89627,13.76421 a 22.520761,22.520761 0 0 1 -11.31004,-3.19342 v -9.47675 a 16.378927,16.378927 0 0 0 9.83369,4.18607 c 3.77423,0.019 6.25802,-2.14372 6.16929,-5.73209 -0.0781,-3.22932 -1.90082,-4.98443 -6.42693,-7.6435 -8.48412,-4.97599 -10.009,-9.07124 -10.0238,-14.54356 m -66.130308,59.54073 c -10.41028,-8.52634 -15.9016,-20.77832 -15.9016,-35.42326 v -69.61942 c 16.42962,-8.71008 36.327218,-13.12426 59.137308,-13.12426 22.81012,0 42.70771,4.41418 59.13733,13.12426 v 69.61942 c 0,14.64494 -5.49132,26.89692 -15.9016,35.42537 -9.51689,7.8019 -39.76352,21.0719 -43.23573,22.58201 -3.4722,-1.51011 -33.718833,-14.78011 -43.235708,-22.58412 z m 80.984358,14.59213 v 6.04257 h 1.08981 v -2.52178 h 0.15418 c 0.0824,0.12249 1.64104,2.52178 1.64104,2.52178 h 1.32003 c 0,0 -1.65582,-2.42252 -1.82481,-2.65062 a 1.607268,1.607268 0 0 0 1.33695,-1.60516 1.7593354,1.7593354 0 0 0 -2.01067,-1.77623 z m 1.58824,0.88284 c 0.92719,0 1.05602,0.45409 1.05602,0.84482 0,0.56603 -0.24286,0.94831 -1.41083,0.94831 h -0.1415 v -1.79736 z m 4.26635,2.15429 a 4.0910357,4.0910357 0 1 1 -4.09526,-4.09949 4.0910357,4.0910357 0 0 1 4.09526,4.09949 m -4.10793,-4.97388 a 4.9654233,4.9654233 0 1 0 4.97174,4.97388 4.9802077,4.9802077 0 0 0 -4.97174,-4.97388"
       fill="#ffbe00"
       id="path315"
       style="stroke-width:2.11205" />
  </g>
</svg>
